<svg xmlns="http://www.w3.org/2000/svg" viewBox="0 0 200 200" width="200" height="200" role="img" aria-label="GoldPriceTools logo">
  <title>GoldPriceTools</title>
  <desc>Hexagonal geometric gold coin mark for GoldPriceTools precious metals calculator</desc>
  <!-- Outer hexagon -->
  <polygon points="100,8 180,54 180,146 100,192 20,146 20,54" fill="none" stroke="#b07a00" stroke-width="4" stroke-linejoin="round"/>
  <!-- Middle hexagon -->
  <polygon points="100,26 164,63 164,137 100,174 36,137 36,63" fill="none" stroke="#e8af34" stroke-width="2.5" stroke-linejoin="round" opacity="0.7"/>
  <!-- Inner hexagon -->
  <polygon points="100,46 148,73 148,127 100,154 52,127 52,73" fill="none" stroke="#e8af34" stroke-width="1.5" stroke-linejoin="round" opacity="0.4"/>
  <!-- Centre dot -->
  <circle cx="100" cy="100" r="10" fill="#e8af34"/>
  <!-- Spokes -->
  <line x1="100" y1="90" x2="100" y2="46" stroke="#e8af34" stroke-width="1" opacity="0.3"/>
  <line x1="100" y1="110" x2="100" y2="154" stroke="#e8af34" stroke-width="1" opacity="0.3"/>
  <line x1="91.3" y1="95" x2="52" y2="73" stroke="#e8af34" stroke-width="1" opacity="0.3"/>
  <line x1="108.7" y1="105" x2="148" y2="127" stroke="#e8af34" stroke-width="1" opacity="0.3"/>
  <line x1="91.3" y1="105" x2="52" y2="127" stroke="#e8af34" stroke-width="1" opacity="0.3"/>
  <line x1="108.7" y1="95" x2="148" y2="73" stroke="#e8af34" stroke-width="1" opacity="0.3"/>
</svg>